<svg xmlns="http://www.w3.org/2000/svg" width="47" height="47" viewBox="0 0 47 47">
  <g id="icon" transform="translate(-0.055)">
    <rect id="rec" width="47" height="47" rx="6" transform="translate(0.055)" fill="#0296a6" opacity="0.075"/>
    <g id="Decorative_icon" data-name="Decorative icon" transform="translate(12.055 11)">
      <g id="Placement_Area" data-name="Placement Area" fill="#0296a6" stroke="rgba(0,0,0,0)" stroke-width="1" opacity="0">
        <rect width="24" height="24" stroke="none"/>
        <rect x="0.5" y="0.5" width="23" height="23" fill="none"/>
      </g>
      <g id="Icon-2" data-name="Icon">
        <g id="Canvas" fill="#0296a6" stroke="#747474" stroke-width="1" opacity="0">
          <rect width="24" height="24" stroke="none"/>
          <rect x="0.5" y="0.5" width="23" height="23" fill="none"/>
        </g>
        <path id="Path_98630" data-name="Path 98630" d="M1,16.7a1.008,1.008,0,0,0,1.008,1.008H20.141A1.008,1.008,0,0,0,21.148,16.7V15H1Z" transform="translate(0.354 5.315)" fill="#0296a6"/>
        <path id="Path_98631" data-name="Path 98631" d="M20,10.024c-1.585.795-7.1,3.355-7.306,3.45a4.347,4.347,0,0,1-1.792.406,3.173,3.173,0,0,1-2.965-1.91,3.57,3.57,0,0,1,.788-3.9H2.008A1.008,1.008,0,0,0,1,9.08v6.046H21.148V9.214A5.566,5.566,0,0,1,20,10.024Z" transform="translate(0.354 2.86)" fill="#0296a6"/>
        <path id="Path_98632" data-name="Path 98632" d="M5.75,8.695s.179-.822.536-2.123C6.528,5.685,9.653,1.8,10.849,1.4A72.745,72.745,0,0,1,18.643.635L21.663,5.9S19,10.068,17.42,10.857s-7.282,3.438-7.282,3.438-1.486.718-2.042-.515c-.423-.938.534-1.8.534-1.8S10.808,10.465,11.65,9.8c.609-.483,1.26-1.444.4-2.308s-1.744-.008-2.2.389-.906.813-.906.813Z" transform="translate(2.037 0.225)" fill="#0296a6"/>
      </g>
    </g>
  </g>
</svg>
