<?xml version="1.0" standalone="no"?>
<!DOCTYPE svg PUBLIC "-//W3C//DTD SVG 20010904//EN"
 "http://www.w3.org/TR/2001/REC-SVG-20010904/DTD/svg10.dtd">
<svg version="1.0" xmlns="http://www.w3.org/2000/svg"
 width="385.000000pt" height="320.000000pt" viewBox="0 0 385.000000 320.000000"
 preserveAspectRatio="xMidYMid meet">

<g transform="translate(0.000000,320.000000) scale(0.100000,-0.100000)"
fill="#000000" stroke="none">
<path d="M1740 3090 c-388 -36 -676 -127 -940 -297 -100 -65 -269 -232 -319
-316 -144 -243 -144 -506 -1 -749 77 -130 237 -275 413 -375 482 -273 1231
-317 1796 -106 365 136 621 364 718 640 25 70 28 92 28 213 0 116 -3 145 -24
205 -152 452 -723 763 -1446 789 -71 2 -173 0 -225 -4z m479 -145 c220 -31
363 -79 476 -160 50 -35 67 -55 80 -90 17 -43 17 -47 1 -90 -39 -102 -180
-172 -478 -239 -24 -5 -28 -3 -34 21 -28 125 -61 231 -98 307 -131 276 -322
312 -469 89 -54 -84 -98 -190 -127 -308 -11 -49 -23 -95 -25 -102 -3 -8 -28
-6 -92 8 -194 42 -309 94 -379 172 -36 41 -44 56 -44 89 0 75 51 133 168 192
123 61 314 108 516 126 123 12 367 4 505 -15z m-244 -259 c17 -13 45 -50 62
-83 34 -63 87 -238 78 -253 -4 -6 -92 -10 -211 -10 l-204 0 0 26 c0 45 30 145
65 214 61 122 138 161 210 106z m-1108 -292 c122 -123 318 -214 559 -260 l91
-17 6 -116 c16 -309 89 -569 201 -714 21 -27 35 -51 32 -54 -8 -9 -219 25
-327 52 -293 73 -573 252 -708 453 -175 260 -174 572 2 795 l30 38 29 -61 c17
-35 53 -85 85 -116z m2232 129 c134 -162 162 -441 67 -657 -56 -127 -171 -262
-309 -364 -183 -136 -475 -241 -741 -267 l-68 -7 46 65 c113 159 181 396 195
687 l6 134 124 28 c160 35 207 51 314 104 153 77 242 155 295 262 14 28 29 52
33 52 4 0 21 -16 38 -37z m-964 -508 c-22 -261 -108 -455 -212 -481 -107 -27
-217 188 -248 483 -4 34 -5 66 -2 70 3 4 110 8 237 8 l232 0 -7 -80z"/>
<path d="M893 802 c-65 -23 -117 -63 -157 -119 -44 -63 -54 -97 -55 -184 -1
-65 3 -84 30 -137 97 -194 338 -237 498 -87 69 65 96 129 95 230 0 72 -3 87
-33 143 -19 35 -51 76 -72 93 -90 71 -210 95 -306 61z m175 -121 c57 -30 102
-110 102 -181 0 -86 -71 -182 -144 -195 -80 -16 -169 40 -196 121 -7 20 -10
65 -8 100 3 52 9 70 34 101 57 71 139 92 212 54z"/>
<path d="M2164 809 c-67 -16 -146 -69 -182 -123 -93 -140 -76 -306 44 -415
159 -146 400 -99 496 96 57 116 39 246 -48 342 -77 86 -201 126 -310 100z
m133 -120 c38 -14 71 -46 95 -93 29 -57 22 -158 -14 -213 -84 -128 -260 -96
-304 54 -46 160 83 305 223 252z"/>
<path d="M142 738 l3 -53 83 -1 c46 -1 85 -4 87 -6 3 -2 5 -105 5 -229 1 -124
5 -231 9 -238 5 -8 27 -11 67 -9 l59 3 5 240 5 240 75 2 c41 0 81 2 88 2 8 1
12 18 12 51 l0 50 -251 0 -250 0 3 -52z"/>
<path d="M1320 785 c0 -3 52 -87 115 -187 l115 -181 0 -109 0 -108 65 0 65 0
0 115 0 115 110 171 c61 94 110 175 110 180 0 5 -31 9 -70 9 l-69 0 -73 -121
c-84 -141 -68 -143 -161 20 l-58 101 -74 0 c-41 0 -75 -2 -75 -5z"/>
<path d="M2590 740 c0 -32 4 -51 13 -52 6 -1 48 -2 92 -2 l80 -1 5 -240 c3
-132 7 -241 8 -243 1 -2 30 -2 65 0 l62 3 3 236 2 237 28 5 c15 3 47 3 71 1
71 -7 81 0 81 57 l0 49 -255 0 -255 0 0 -50z"/>
<path d="M3291 768 c-5 -13 -59 -141 -120 -285 -61 -144 -111 -267 -111 -273
0 -7 27 -10 76 -8 l76 3 23 60 22 60 124 0 124 0 24 -62 25 -63 77 0 78 0 -24
63 c-13 34 -58 145 -100 247 -42 102 -84 205 -94 230 l-17 45 -87 3 c-83 3
-88 2 -96 -20z m138 -226 c17 -46 31 -88 31 -93 0 -5 -34 -9 -75 -9 -42 0 -75
4 -75 10 0 5 13 42 28 82 16 40 32 82 36 92 9 27 19 13 55 -82z"/>
</g>
</svg>
